# xmcd
#
# Track frame offsets: 
#        150
#        14775
#        33450
#        54225
#        71550
#        92175
#        110100
#        129825
#        142050
#        160050
#        179550
#        194250
#        211725
#
# Disc length: 2989 seconds
#
# Revision: 0
# Processed by: cddbd v1.4PL0 Copyright (c) Steve Scherf et al.
# Submitted via: ExactAudioCopy v0.95a4
#
DISCID=bd0bab0d
DTITLE=Jane Begley - Jane Begley
DYEAR=1996
DGENRE=Folk/Rock
TTITLE0=Joe's Bar
TTITLE1=Rock-n-Roll
TTITLE2=West Texas Winds
TTITLE3=Kentucky
TTITLE4=Peach Pit and Holy Ham
TTITLE5=All I Do
TTITLE6=Big Smile
TTITLE7=Mad Song
TTITLE8=Wishes
TTITLE9=Barbara Jean
TTITLE10=Raise the Stakes
TTITLE11=Baseball Song
TTITLE12=Are You the One
EXTD=
EXTT0=Joe's Bar
EXTT1=
EXTT2=
EXTT3=
EXTT4=
EXTT5=
EXTT6=
EXTT7=
EXTT8=
EXTT9=
EXTT10=
EXTT11=
EXTT12=
PLAYORDER=
